<svg xmlns="http://www.w3.org/2000/svg" viewBox="0 0 400 400" xml:space="preserve"><path fill="#8EC0D6" d="M134.598 93.83c0 8.624-6.991 15.614-15.615 15.614h-2.309c-8.624 0-15.615-6.99-15.615-15.614v-9.02c0-8.624 6.991-15.614 15.615-15.614h2.309c8.624 0 15.615 6.99 15.615 15.614v9.02zM245.278 280.495h-43.197c0-16.77-3.216-23.782-7.116-35.237l-36.613-97.711c-10.933-27.33-29.781-26.735-35.528-25.356-11.742 2.817-18.976 14.472-16.16 26.211l49.919 155.128c.616 2.561 1.726 8.233 3.103 10.309 3.232 9.816 12.366 20.32 23.261 20.32h112.639v-31.417c0-13.583-6.13-22.246-19.717-22.246h-10.468"/><path fill="#A9D2E0" d="M169.749 313.837c-1.377-2.077-2.488-7.748-3.103-10.309L116.726 148.4c-2.807-11.703 4.376-23.317 16.054-26.179-4.317-.871-7.946-.514-9.955-.031-11.742 2.817-18.976 14.472-16.16 26.211l49.919 155.128c.616 2.561 1.726 8.233 3.103 10.309 3.232 9.816 12.366 20.32 23.261 20.32h10.062c-10.895 0-20.028-10.504-23.261-20.321z"/><path fill="#E3E3E3" d="M122.825 122.694a19.638 19.638 0 0 1 2.331-.385v-13.828c0-.244-.038-.478-.072-.714-1.412.419-2.876.714-4.424.714h-2.309c-1.105 0-2.181-.121-3.223-.341-.008.115-.034.224-.034.341v15.08c0 .835.223 1.61.581 2.302a21.83 21.83 0 0 1 7.15-3.169z"/><path fill="#A9D2E0" d="M111.121 93.83v-9.02c0-7.278 5.001-13.339 11.739-15.07-1.246-.321-2.53-.544-3.877-.544h-2.309c-8.624 0-15.615 6.99-15.615 15.614v9.02c0 8.624 6.991 15.614 15.615 15.614h2.309c1.346 0 2.63-.223 3.877-.544-6.738-1.731-11.739-7.792-11.739-15.07z"/><g><path fill="#161616" d="M120.66 112.798h-2.309c-11.385 0-20.646-9.261-20.646-20.644v-9.02c0-11.383 9.261-20.644 20.646-20.644h2.309c11.385 0 20.646 9.261 20.646 20.644v9.02c0 11.383-9.261 20.644-20.646 20.644zm-2.309-40.248c-5.837 0-10.584 4.748-10.584 10.583v9.02c0 5.835 4.748 10.583 10.584 10.583h2.309c5.837 0 10.584-4.748 10.584-10.583v-9.02c0-5.835-4.748-10.583-10.584-10.583h-2.309zM297.264 337.512H182.949c-13.221 0-23.921-11.174-27.847-22.398-1.433-2.506-2.383-6.167-3.303-10.018l-.062-.26-49.86-154.998a4.665 4.665 0 0 1-.103-.368c-3.454-14.397 5.465-28.923 19.878-32.38 2.81-.676 27.855-5.616 41.372 28.17l36.651 97.389a395.383 395.383 0 0 0 1.69 4.82c2.835 7.97 5.144 14.464 5.647 26.32h38.267a5.03 5.03 0 1 1 0 10.062h-43.197a5.03 5.03 0 0 1-5.031-5.031c0-13.452-2.167-19.545-5.167-27.979-.54-1.52-1.102-3.102-1.68-4.798l-36.559-97.141c-10.339-25.839-27.701-22.493-29.645-22.027-8.963 2.15-14.529 11.131-12.484 20.076l49.857 154.987c.039.121.074.242.103.365l.108.454c.368 1.539 1.489 6.22 2.296 7.438.249.375.445.781.586 1.207 2.563 7.78 9.911 16.051 18.483 16.051h109.285v-24.709c0-9.133-4.299-18.892-16.363-18.892h-10.468a5.03 5.03 0 1 1 0-10.062h10.468c15.559 0 26.425 11.906 26.425 28.954v29.74a5.031 5.031 0 0 1-5.032 5.028z"/><path fill="#161616" d="M122.825 121.98a19.638 19.638 0 0 1 2.331-.385v-13.828c0-.244-.038-.478-.072-.714-1.412.419-2.876.714-4.424.714h-2.309c-1.105 0-2.181-.121-3.223-.341-.008.115-.034.224-.034.341v15.08c0 .835.223 1.61.581 2.302a21.83 21.83 0 0 1 7.15-3.169z"/></g></svg>