<svg xmlns="http://www.w3.org/2000/svg" xml:space="preserve" width="2048" height="2048" style="shape-rendering:geometricPrecision;text-rendering:geometricPrecision;image-rendering:optimizeQuality;fill-rule:evenodd;clip-rule:evenodd"><defs><style>.fil1,.fil3{fill:#a60806;fill-rule:nonzero}.fil1{fill:#b80000}</style></defs><g id="Layer_x0020_1"><g id="_359462464"><path d="M1024 448c159 0 303 64 407 169 104 104 169 248 169 407s-64 303-169 407c-104 104-248 169-407 169s-303-64-407-169c-104-104-169-248-169-407s64-303 169-407c104-104 248-169 407-169z" style="fill:#d91818;fill-rule:nonzero"/><path class="fil1" d="M1024 320c194 0 370 79 498 206 127 127 206 303 206 498 0 194-79 370-206 498-127 127-303 206-498 206-194 0-370-79-498-206-127-127-206-303-206-498 0-194 79-370 206-498 127-127 303-206 498-206zm453 251c-116-116-276-187-453-187s-337 72-453 187c-116 116-187 276-187 453s72 337 187 453c116 116 276 187 453 187s337-72 453-187c116-116 187-276 187-453s-72-337-187-453z"/><path class="fil1" d="M1056 256v111h-64V256zM256 992h111v64H256zM1056 1681v111h-64v-111zM1681 992h111v64h-111z"/><g><path d="M1024 1600c-159 0-303-64-407-169-104-104-169-248-169-407s64-303 169-407c104-104 248-169 407-169v1152z" style="fill:#c31d1c;fill-rule:nonzero"/><path class="fil3" d="M1024 1728c-194 0-370-79-498-206-127-127-206-303-206-498 0-194 79-370 206-498 127-127 303-206 498-206v64c-177 0-337 72-453 187-116 116-187 276-187 453s72 337 187 453c116 116 276 187 453 187v64z"/><path class="fil3" d="M1024 367h-32V256h32zM256 992h111v64H256zM1024 1792h-32v-111h32z"/></g></g><path style="fill:none" d="M0 0h2048v2048H0z"/></g></svg>