<svg xmlns="http://www.w3.org/2000/svg" xml:space="preserve" width="655.359" height="655.359" style="shape-rendering:geometricPrecision;text-rendering:geometricPrecision;image-rendering:optimizeQuality;fill-rule:evenodd;clip-rule:evenodd" viewBox="0 0 6.827 6.827"><defs><style>.fil1{fill:none}</style></defs><g id="Layer_x0020_1"><path d="M4.304 2.189a.89.89 0 1 0-1.781 0 .89.89 0 0 0 1.78 0z" style="fill:#64ffda"/><path class="fil1" d="M0 0h6.827v6.827H0z"/><path class="fil1" d="M.853.853h5.12v5.12H.853z"/><path d="M3.413.853c.776 0 1.405.585 1.405 1.305 0 .485-1.164 3.18-1.405 3.815-.17-.447-1.405-3.298-1.405-3.815 0-.72.63-1.305 1.405-1.305zm0 .446a.89.89 0 1 1 0 1.78.89.89 0 0 1 0-1.78z" style="fill:#26a69a"/></g></svg>