<svg version="1.1" id="Layer_1" xmlns="http://www.w3.org/2000/svg" x="0" y="0" viewBox="0 0 500 500" style="enable-background:new 0 0 500 500" xml:space="preserve"><style>.st0{fill:#c9c9c9}.st3{fill:#231f20}.st6{fill:#4c4c4c}.st7{fill:#f9b630}.st11{fill:#08b26c}</style><path d="M174.9 91.7v54h.2v8.2c0 53 43.2 96.2 96.2 96.2l2.5-.1h83.9c14.5 0 26.2 11.8 26.2 26.2 0 14.5-11.8 26.2-26.2 26.2H211.2v.2H203c-53 0-96.2 43.2-96.2 96.2S150 495 203 495h191.8l-31.5-70H203.1c-14.5 0-26.2-11.8-26.2-26.2 0-14.5 11.8-26.2 26.2-26.2h146.5v-.2h8.2c53 0 96.2-43.2 96.2-96.2S410.7 180 357.7 180h-83.9l-2.5.1c-14.5 0-26.2-11.8-26.2-26.2l-.2-62.2" style="fill:#7a7979"/><path class="st0" d="M203.1 480c-44.8 0-81.2-36.4-81.2-81.2s36.4-81.2 81.2-81.2H231c2.8 0 5 2.2 5 5s-2.2 5-5 5h-27.9c-39.3 0-71.2 31.9-71.2 71.2s31.9 71.2 71.2 71.2c2.8 0 5 2.2 5 5s-2.3 5-5 5zM276 327.6h-18c-2.8 0-5-2.2-5-5s2.2-5 5-5h18c2.8 0 5 2.2 5 5s-2.2 5-5 5zM270.9 235c-19.1-.1-37.6-6.9-52.1-19.3-2.1-1.8-2.4-4.9-.6-7 1.8-2.1 4.9-2.4 7-.6 12.7 10.8 28.9 16.8 45.6 16.9l2.4-.1h84.5c2.8 0 5 2.2 5 5s-2.2 5-5 5h-84.5l-2.1.1h-.2zM204 194.6c-1.8 0-3.5-1-4.4-2.6-.7-1.3-1.3-2.6-1.9-3.9-1.2-2.5-.1-5.5 2.4-6.6 2.5-1.2 5.5-.1 6.6 2.4.5 1.1 1.1 2.3 1.7 3.4 1.3 2.4.4 5.5-2.1 6.8-.7.3-1.5.5-2.3.5z"/><path class="st6" d="M174.9 91.7v52.9l2.9 4.1c7.2 10.4 19.1 16.6 31.8 16.6s24.5-6.2 31.8-16.6l3.7-5.4-.2-51.7h-70zM363.4 425h-46.7c1.6 12.4 6.2 24.5 13.6 35.2l24.2 34.8h40.4l-31.5-70zM428.1 341.6c-9.4-4.2-19.7-6.7-30.4-6.9h-4.4c-26.9.7-51.5 15-65.4 37.9h21.7v-.2h8.2c27.7 0 52.7-11.9 70.3-30.8z"/><path class="st3" d="M369.7 430H203.1c-17.2 0-31.2-14-31.2-31.2s14-31.2 31.2-31.2h145.1c.4-.1.9-.2 1.4-.2h8.2c50.3 0 91.2-40.9 91.2-91.2S408 185 357.7 185h-83.8l-2.4.1h-.2c-17.2 0-31.2-14-31.2-31.2l-.2-62.2c0-2.8 2.2-5 5-5s5 2.2 5 5l.2 62.2c0 11.7 9.5 21.2 21.1 21.3l2.4-.1H357.7c55.8 0 101.2 45.4 101.2 101.2s-45.4 101.2-101.2 101.2h-6.8c-.4.1-.9.2-1.4.2H203.1c-11.7 0-21.2 9.5-21.2 21.2s9.5 21.2 21.2 21.2h166.7c2.8 0 5 2.2 5 5s-2.3 4.9-5.1 4.9z"/><path class="st3" d="M394.8 500H203.1c-55.8 0-101.2-45.4-101.2-101.2s45.4-101.2 101.2-101.2h6.8c.4-.1.9-.2 1.4-.2h146.5c11.7 0 21.2-9.5 21.2-21.2s-9.5-21.2-21.2-21.2H274l-2.4.1h-.2c-55.8 0-101.2-45.4-101.2-101.2v-6.8c-.1-.4-.2-.9-.2-1.4v-54c0-2.8 2.2-5 5-5s5 2.2 5 5v52.6c.1.4.2.9.2 1.4v8.2c0 50.3 40.9 91.1 91.1 91.2l2.4-.1H357.8c17.2 0 31.2 14 31.2 31.2s-14 31.2-31.2 31.2H212.6c-.4.1-.9.2-1.4.2H203c-50.3 0-91.2 40.9-91.2 91.2S152.7 490 203 490h191.8c2.8 0 5 2.2 5 5s-2.2 5-5 5z"/><path class="st7" d="M210.9 5h-3c-39.5 1-61.6 46-39.1 78.4l33.5 48.2c3.5 5 10.8 5 14.3 0l33.5-48.2C272.6 51 250.4 6 210.9 5zm-1.4 71.2c-12.1 0-21.9-9.8-21.9-21.9 0-12.1 9.8-21.9 21.9-21.9 12.1 0 21.9 9.8 21.9 21.9 0 12.1-9.8 21.9-21.9 21.9zM396.9 364.7h-3c-39.5 1-61.6 46-39.1 78.4l33.5 48.2c3.5 5 10.8 5 14.3 0l33.5-48.2c22.5-32.4.3-77.4-39.2-78.4zm-1.4 71.2c-12.1 0-21.9-9.8-21.9-21.9 0-12.1 9.8-21.9 21.9-21.9 12.1 0 21.9 9.8 21.9 21.9 0 12.1-9.8 21.9-21.9 21.9z"/><path class="st3" d="M395.5 500c-4.5 0-8.7-2.2-11.2-5.9L350.8 446c-11.8-16.9-13.2-38-3.9-56.5 9.2-18.1 26.7-29.3 46.9-29.8h3.2c20.2.5 37.7 11.7 46.9 29.8 9.3 18.4 7.9 39.6-3.9 56.5l-33.5 48.2c-2.3 3.6-6.5 5.8-11 5.8zm0-130.3h-1.3c-16.5.4-30.8 9.5-38.3 24.3-7.7 15.1-6.5 32.4 3.1 46.3l33.5 48.2c.7 1 1.8 1.6 3 1.6s2.3-.6 3-1.6l33.5-48.2c9.6-13.9 10.8-31.1 3.1-46.3-7.5-14.8-21.8-23.9-38.3-24.3h-1.3z"/><path class="st3" d="M395.5 440.9c-14.8 0-26.9-12.1-26.9-26.9 0-14.8 12.1-26.9 26.9-26.9 14.8 0 26.9 12.1 26.9 26.9 0 14.8-12.1 26.9-26.9 26.9zm0-43.8c-9.3 0-16.9 7.6-16.9 16.9s7.6 16.9 16.9 16.9 16.9-7.6 16.9-16.9-7.6-16.9-16.9-16.9z"/><path class="st11" d="M311 103.4c.5-1.6.8-3.3.8-5.1 0-9.3-7.5-16.8-16.8-16.8s-16.8 7.5-16.8 16.8c0 1.8.3 3.5.8 5.1-7.5 1.7-13.1 8.4-13.1 16.3 0 9.3 7.5 16.8 16.8 16.8 4.9 0 9.2-2.1 12.3-5.4 3.1 3.3 7.4 5.4 12.3 5.4 9.3 0 16.8-7.5 16.8-16.8 0-8-5.6-14.6-13.1-16.3z"/><path class="st11" d="M369.1 103.4c.5-1.6.8-3.3.8-5.1 0-9.3-7.5-16.8-16.8-16.8s-16.8 7.5-16.8 16.8c0 1.8.3 3.5.8 5.1-7.5 1.7-13.1 8.4-13.1 16.3 0 9.3 7.5 16.8 16.8 16.8 4.9 0 9.2-2.1 12.3-5.4 3.1 3.3 7.4 5.4 12.3 5.4 9.3 0 16.8-7.5 16.8-16.8 0-8-5.6-14.6-13.1-16.3z"/><path class="st3" d="M307.3 141.5c-4.4 0-8.7-1.4-12.3-3.8-3.6 2.5-7.9 3.8-12.3 3.8-12 0-21.8-9.8-21.8-21.8 0-8.4 5-16.1 12.4-19.6-.1-.6-.1-1.2-.1-1.9 0-12 9.8-21.8 21.8-21.8s21.8 9.8 21.8 21.8c0 .6 0 1.3-.1 1.9 7.4 3.6 12.4 11.2 12.4 19.6 0 12-9.8 21.8-21.8 21.8zM295 126.1c1.4 0 2.7.6 3.7 1.6 2.3 2.4 5.3 3.8 8.6 3.8 6.5 0 11.8-5.3 11.8-11.8 0-5.5-3.9-10.3-9.2-11.5-1.4-.3-2.6-1.2-3.3-2.4-.7-1.2-.9-2.7-.4-4 .4-1.2.6-2.4.6-3.6 0-6.5-5.3-11.8-11.8-11.8s-11.8 5.3-11.8 11.8c0 1.2.2 2.4.6 3.6.4 1.3.3 2.8-.4 4-.7 1.2-1.9 2.1-3.3 2.4-5.3 1.2-9.2 6-9.2 11.5 0 6.5 5.3 11.8 11.8 11.8 3.3 0 6.4-1.3 8.6-3.8 1-1 2.3-1.6 3.7-1.6z"/><path class="st3" d="M365.4 141.5c-4.4 0-8.7-1.4-12.3-3.8-3.6 2.5-7.9 3.8-12.3 3.8-12 0-21.8-9.8-21.8-21.8 0-8.4 5-16.1 12.4-19.6-.1-.6-.1-1.2-.1-1.9 0-12 9.8-21.8 21.8-21.8s21.8 9.8 21.8 21.8c0 .6 0 1.3-.1 1.9 7.4 3.6 12.4 11.2 12.4 19.6 0 12-9.8 21.8-21.8 21.8zm-12.3-15.4c1.4 0 2.7.6 3.7 1.6 2.3 2.4 5.3 3.8 8.6 3.8 6.5 0 11.8-5.3 11.8-11.8 0-5.5-3.9-10.3-9.2-11.5-1.4-.3-2.6-1.2-3.3-2.4-.7-1.2-.9-2.7-.4-4 .4-1.2.6-2.4.6-3.6 0-6.5-5.3-11.8-11.8-11.8-6.5 0-11.8 5.3-11.8 11.8 0 1.2.2 2.4.6 3.6.4 1.3.3 2.8-.4 4-.7 1.2-1.9 2.1-3.3 2.4-5.3 1.2-9.2 6-9.2 11.5 0 6.5 5.3 11.8 11.8 11.8 3.3 0 6.4-1.3 8.6-3.8 1-1 2.3-1.6 3.7-1.6zM295 185c-2.8 0-5-2.2-5-5v-48.9c0-2.8 2.2-5 5-5s5 2.2 5 5V180c0 2.8-2.2 5-5 5z"/><path class="st3" d="M353.1 185c-2.8 0-5-2.2-5-5v-48.9c0-2.8 2.2-5 5-5s5 2.2 5 5V180c0 2.8-2.2 5-5 5z"/><path d="M217.9 107.5c0-19.5-12.5-36.2-29.8-42.4-5.3-10.4-15.3-18-27.1-20.2-2.6 12.7-.4 26.5 8 38.6l33.5 48.2c1.5 2.1 3.6 3.3 5.9 3.6 5.9-7.7 9.5-17.3 9.5-27.8z" style="fill:#d88a0e"/><path class="st3" d="M209.5 81.2c-14.8 0-26.9-12.1-26.9-26.9 0-14.8 12.1-26.9 26.9-26.9 14.8 0 26.9 12.1 26.9 26.9 0 14.8-12.1 26.9-26.9 26.9zm0-43.8c-9.3 0-16.9 7.6-16.9 16.9s7.6 16.9 16.9 16.9 16.9-7.6 16.9-16.9-7.6-16.9-16.9-16.9z"/><path class="st3" d="M209.5 140.3c-4.5 0-8.7-2.2-11.2-5.9l-33.5-48.2c-11.8-16.9-13.2-38-3.9-56.5C170.1 11.6 187.6.4 207.8-.1h3.2c20.2.5 37.7 11.7 46.9 29.8 9.3 18.4 7.9 39.6-3.9 56.5l-33.5 48.2c-2.3 3.7-6.5 5.9-11 5.9zm0-130.3h-1.3c-16.5.4-30.8 9.5-38.3 24.3-7.7 15.1-6.5 32.4 3.1 46.3l33.5 48.2c.7 1 1.8 1.6 3 1.6s2.3-.6 3-1.6L246 80.6c9.6-13.9 10.8-31.1 3.1-46.3-7.5-14.8-21.8-23.9-38.3-24.3h-1.3z"/><path d="M71.2 82.4c-13.9 0-25.1 11.2-25.1 25.1s11.2 25.1 25.1 25.1h101.5c13.9 0 25.1-11.2 25.1-25.1s-11.2-25.1-25.1-25.1h-.6c0-10.1-8.2-18.2-18.2-18.2-10.1 0-18.2 8.2-18.2 18.2 0-17.5-14.2-31.7-31.7-31.7S72.4 64.9 72.4 82.4h-1.2z" style="fill:#71ccff"/><path class="st3" d="M172.7 137.6H71.2c-16.6 0-30.1-13.5-30.1-30.1 0-15.4 11.6-28.2 26.6-29.9 2.4-18 17.8-31.9 36.4-31.9 14.5 0 27.1 8.5 33 20.8 4.2-4.5 10.2-7.3 16.9-7.3 11.2 0 20.5 7.9 22.7 18.5 14.7 1.9 26.1 14.6 26.1 29.8.1 16.6-13.5 30.1-30.1 30.1zM71.2 87.4c-11.1 0-20.1 9-20.1 20.1 0 11.1 9 20.1 20.1 20.1h101.5c11.1 0 20.1-9 20.1-20.1 0-11.1-9-20.1-20.1-20.1h-.6c-2.8 0-5-2.2-5-5 0-7.3-5.9-13.2-13.2-13.2s-13.2 5.9-13.2 13.2c0 2.8-2.2 5-5 5s-5-2.2-5-5c0-14.7-12-26.7-26.7-26.7s-26.7 12-26.7 26.7c0 2.8-2.2 5-5 5h-1.1z"/><path d="M83.6 106.9H71.2c-2.8 0-5-2.2-5-5s2.2-5 5-5h12.3c1.8 0 3.4-1.5 3.4-3.4V82.8c0-9 6.8-16.6 15.5-17.5 4.8-.5 9.6 1.1 13.2 4.4 3.6 3.3 5.6 7.9 5.6 12.7 0 2.8-2.2 5-5 5s-5-2.2-5-5c0-2-.9-3.9-2.4-5.3s-3.5-2-5.5-1.8c-3.6.3-6.5 3.6-6.5 7.5v10.8c.1 7.3-5.9 13.3-13.2 13.3z" style="fill:#c0e7f9"/></svg>